<?xml version="1.0" encoding="utf-8"?>
<!-- Generator: Adobe Illustrator 24.2.1, SVG Export Plug-In . SVG Version: 6.00 Build 0)  -->
<svg version="1.1" id="Layer_1" xmlns="http://www.w3.org/2000/svg" xmlns:xlink="http://www.w3.org/1999/xlink" x="0px" y="0px"
	 viewBox="0 0 50 50" style="enable-background:new 0 0 50 50;" xml:space="preserve">
<style type="text/css">
	.st0{fill:#6C757D;}
</style>
<path class="st0" d="M3.1,23.2l5.1-8.7c0-0.1,0.1-0.2,0.2-0.2l9.1-8.5c0.1-0.1,0.2-0.2,0.3-0.2l7.8-2.9l6.6,4.6l-3.3,10.4L16.6,29.1
	l-10,2.2L3.1,23.2z M7.3,33.3L12,46.6l3.8-15.3L7.3,33.3z M42.5,2.9L35.1,7l12.3,8.9c0.3-1.1,0.6-2.7,0.6-4c0,0,0,0,0-0.1
	c0-1.9-0.3-3.9-1.3-5.6C45.8,4.7,44.4,3.5,42.5,2.9C42.5,2.8,42.5,2.9,42.5,2.9z M34.4,35.6l-5.1-15.5L19,29.6L34.4,35.6z
	 M31.1,19.3l5,15.4c3.9-4.3,8-9.4,10.3-15.8L31.1,19.3z M45.4,16.9L33.9,8.6l-2.7,8.7L45.4,16.9z M5.8,34.9l-3.4,5.9
	c1.2,5.4,5.2,6.6,7.9,6.9L5.8,34.9z M4.9,32.5L2,25.6v11.8L4.9,32.5z M39.9,2C39.9,2,39.9,2,39.9,2L28,2l5.3,3.7L39.9,2z M17.9,31.4
	l-4.1,16.3c8.3-1.2,14.6-5.7,19.6-10.3L17.9,31.4z M44.5,45.6c-0.2,0-0.5-0.1-0.7-0.2l-8.3-7.3c-3.6,3.4-7.9,6.8-13.1,9.1L44.5,45.6
	c0.1,0,0.3,0,0.4-0.1C44.8,45.6,44.7,45.6,44.5,45.6z M37.1,36.7l8.1,7.2c0.2,0.2,0.3,0.4,0.3,0.6l1.7-22
	C44.6,28.1,40.7,32.7,37.1,36.7z"/>
</svg>
